<svg xmlns="http://www.w3.org/2000/svg" version="1.1" xmlns:xlink="http://www.w3.org/1999/xlink" xmlns:svgjs="http://svgjs.com/svgjs" width="1080" height="2560" preserveAspectRatio="none" viewBox="0 0 1080 2560"><g mask="url(&quot;#SvgjsMask1092&quot;)" fill="none"><rect width="1080" height="2560" x="0" y="0" fill="rgba(198, 40, 40, 1)"></rect><path d="M311 2494L635 2818" stroke-width="6" stroke="url(#SvgjsLinearGradient1093)" stroke-linecap="round" class="BottomRight"></path><path d="M835 324L551 40" stroke-width="10" stroke="url(#SvgjsLinearGradient1094)" stroke-linecap="round" class="TopLeft"></path><path d="M382 2104L-81 1641" stroke-width="10" stroke="url(#SvgjsLinearGradient1095)" stroke-linecap="round" class="TopLeft"></path><path d="M952 425L150 -377" stroke-width="6" stroke="url(#SvgjsLinearGradient1095)" stroke-linecap="round" class="TopLeft"></path><path d="M618 2390L157 1929" stroke-width="10" stroke="url(#SvgjsLinearGradient1093)" stroke-linecap="round" class="BottomRight"></path><path d="M158 2129L670 2641" stroke-width="10" stroke="url(#SvgjsLinearGradient1095)" stroke-linecap="round" class="TopLeft"></path><path d="M1029 2022L501 1494" stroke-width="10" stroke="url(#SvgjsLinearGradient1094)" stroke-linecap="round" class="TopLeft"></path><path d="M909 888L1531 1510" stroke-width="10" stroke="url(#SvgjsLinearGradient1095)" stroke-linecap="round" class="TopLeft"></path><path d="M959 596L1745 1382" stroke-width="10" stroke="url(#SvgjsLinearGradient1093)" stroke-linecap="round" class="BottomRight"></path><path d="M505 1593L952 2040" stroke-width="6" stroke="url(#SvgjsLinearGradient1093)" stroke-linecap="round" class="BottomRight"></path><path d="M954 757L571 374" stroke-width="8" stroke="url(#SvgjsLinearGradient1093)" stroke-linecap="round" class="BottomRight"></path><path d="M616 2482L920 2786" stroke-width="8" stroke="url(#SvgjsLinearGradient1094)" stroke-linecap="round" class="TopLeft"></path><path d="M394 1503L-319 790" stroke-width="6" stroke="url(#SvgjsLinearGradient1093)" stroke-linecap="round" class="BottomRight"></path><path d="M93 873L-642 138" stroke-width="6" stroke="url(#SvgjsLinearGradient1094)" stroke-linecap="round" class="TopLeft"></path><path d="M1051 2305L1689 2943" stroke-width="10" stroke="url(#SvgjsLinearGradient1093)" stroke-linecap="round" class="BottomRight"></path><path d="M964 2000L616 1652" stroke-width="8" stroke="url(#SvgjsLinearGradient1094)" stroke-linecap="round" class="TopLeft"></path><path d="M478 1597L1084 2203" stroke-width="6" stroke="url(#SvgjsLinearGradient1096)" stroke-linecap="round" class="BottomRight"></path><path d="M315 2176L932 2793" stroke-width="8" stroke="url(#SvgjsLinearGradient1093)" stroke-linecap="round" class="BottomRight"></path><path d="M765 334L242 -189" stroke-width="8" stroke="url(#SvgjsLinearGradient1095)" stroke-linecap="round" class="TopLeft"></path><path d="M584 1673L144 1233" stroke-width="6" stroke="url(#SvgjsLinearGradient1094)" stroke-linecap="round" class="TopLeft"></path><path d="M985 2249L1496 2760" stroke-width="10" stroke="url(#SvgjsLinearGradient1096)" stroke-linecap="round" class="BottomRight"></path><path d="M801 2482L1160 2841" stroke-width="6" stroke="url(#SvgjsLinearGradient1093)" stroke-linecap="round" class="BottomRight"></path><path d="M735 1708L272 1245" stroke-width="6" stroke="url(#SvgjsLinearGradient1096)" stroke-linecap="round" class="BottomRight"></path><path d="M986 1881L1482 2377" stroke-width="10" stroke="url(#SvgjsLinearGradient1093)" stroke-linecap="round" class="BottomRight"></path><path d="M833 2394L482 2043" stroke-width="6" stroke="url(#SvgjsLinearGradient1096)" stroke-linecap="round" class="BottomRight"></path><path d="M593 607L75 89" stroke-width="10" stroke="url(#SvgjsLinearGradient1094)" stroke-linecap="round" class="TopLeft"></path><path d="M34 1937L752 2655" stroke-width="8" stroke="url(#SvgjsLinearGradient1094)" stroke-linecap="round" class="TopLeft"></path><path d="M445 2353L-354 1554" stroke-width="10" stroke="url(#SvgjsLinearGradient1096)" stroke-linecap="round" class="BottomRight"></path><path d="M251 1824L857 2430" stroke-width="10" stroke="url(#SvgjsLinearGradient1094)" stroke-linecap="round" class="TopLeft"></path><path d="M684 715L970 1001" stroke-width="6" stroke="url(#SvgjsLinearGradient1093)" stroke-linecap="round" class="BottomRight"></path><path d="M201 1957L-535 1221" stroke-width="10" stroke="url(#SvgjsLinearGradient1095)" stroke-linecap="round" class="TopLeft"></path><path d="M396 1656L1169 2429" stroke-width="6" stroke="url(#SvgjsLinearGradient1095)" stroke-linecap="round" class="TopLeft"></path><path d="M469 1528L-315 744" stroke-width="10" stroke="url(#SvgjsLinearGradient1095)" stroke-linecap="round" class="TopLeft"></path><path d="M222 2313L-65 2026" stroke-width="10" stroke="url(#SvgjsLinearGradient1096)" stroke-linecap="round" class="BottomRight"></path><path d="M523 31L27 -465" stroke-width="6" stroke="url(#SvgjsLinearGradient1095)" stroke-linecap="round" class="TopLeft"></path><path d="M161 1613L620 2072" stroke-width="8" stroke="url(#SvgjsLinearGradient1093)" stroke-linecap="round" class="BottomRight"></path><path d="M966 1463L652 1149" stroke-width="10" stroke="url(#SvgjsLinearGradient1096)" stroke-linecap="round" class="BottomRight"></path><path d="M568 2264L85 1781" stroke-width="8" stroke="url(#SvgjsLinearGradient1094)" stroke-linecap="round" class="TopLeft"></path><path d="M235 1870L771 2406" stroke-width="8" stroke="url(#SvgjsLinearGradient1094)" stroke-linecap="round" class="TopLeft"></path><path d="M88 1572L-293 1191" stroke-width="8" stroke="url(#SvgjsLinearGradient1094)" stroke-linecap="round" class="TopLeft"></path><path d="M153 1549L663 2059" stroke-width="8" stroke="url(#SvgjsLinearGradient1094)" stroke-linecap="round" class="TopLeft"></path><path d="M553 2526L-236 1737" stroke-width="6" stroke="url(#SvgjsLinearGradient1093)" stroke-linecap="round" class="BottomRight"></path><path d="M782 1208L1406 1832" stroke-width="6" stroke="url(#SvgjsLinearGradient1093)" stroke-linecap="round" class="BottomRight"></path><path d="M976 1714L304 1042" stroke-width="8" stroke="url(#SvgjsLinearGradient1094)" stroke-linecap="round" class="TopLeft"></path><path d="M295 1885L771 2361" stroke-width="6" stroke="url(#SvgjsLinearGradient1095)" stroke-linecap="round" class="TopLeft"></path><path d="M557 956L-53 346" stroke-width="10" stroke="url(#SvgjsLinearGradient1095)" stroke-linecap="round" class="TopLeft"></path><path d="M386 961L857 1432" stroke-width="6" stroke="url(#SvgjsLinearGradient1093)" stroke-linecap="round" class="BottomRight"></path><path d="M780 995L17 232" stroke-width="10" stroke="url(#SvgjsLinearGradient1094)" stroke-linecap="round" class="TopLeft"></path><path d="M370 1101L990 1721" stroke-width="6" stroke="url(#SvgjsLinearGradient1094)" stroke-linecap="round" class="TopLeft"></path><path d="M1050 379L1374 703" stroke-width="6" stroke="url(#SvgjsLinearGradient1093)" stroke-linecap="round" class="BottomRight"></path><path d="M170 1035L-416 449" stroke-width="10" stroke="url(#SvgjsLinearGradient1093)" stroke-linecap="round" class="BottomRight"></path><path d="M939 681L642 384" stroke-width="6" stroke="url(#SvgjsLinearGradient1095)" stroke-linecap="round" class="TopLeft"></path><path d="M68 1749L-543 1138" stroke-width="10" stroke="url(#SvgjsLinearGradient1094)" stroke-linecap="round" class="TopLeft"></path><path d="M937 261L167 -509" stroke-width="10" stroke="url(#SvgjsLinearGradient1096)" stroke-linecap="round" class="BottomRight"></path><path d="M815 1052L1191 1428" stroke-width="10" stroke="url(#SvgjsLinearGradient1093)" stroke-linecap="round" class="BottomRight"></path><path d="M996 324L408 -264" stroke-width="6" stroke="url(#SvgjsLinearGradient1094)" stroke-linecap="round" class="TopLeft"></path><path d="M23 2105L-501 1581" stroke-width="10" stroke="url(#SvgjsLinearGradient1093)" stroke-linecap="round" class="BottomRight"></path><path d="M694 1732L988 2026" stroke-width="8" stroke="url(#SvgjsLinearGradient1094)" stroke-linecap="round" class="TopLeft"></path><path d="M945 2092L410 1557" stroke-width="10" stroke="url(#SvgjsLinearGradient1095)" stroke-linecap="round" class="TopLeft"></path><path d="M774 1990L228 1444" stroke-width="10" stroke="url(#SvgjsLinearGradient1094)" stroke-linecap="round" class="TopLeft"></path><path d="M171 1195L504 1528" stroke-width="8" stroke="url(#SvgjsLinearGradient1094)" stroke-linecap="round" class="TopLeft"></path><path d="M272 608L1027 1363" stroke-width="8" stroke="url(#SvgjsLinearGradient1096)" stroke-linecap="round" class="BottomRight"></path><path d="M395 758L-166 197" stroke-width="10" stroke="url(#SvgjsLinearGradient1096)" stroke-linecap="round" class="BottomRight"></path><path d="M896 2452L568 2124" stroke-width="6" stroke="url(#SvgjsLinearGradient1094)" stroke-linecap="round" class="TopLeft"></path><path d="M221 845L-538 86" stroke-width="8" stroke="url(#SvgjsLinearGradient1093)" stroke-linecap="round" class="BottomRight"></path><path d="M113 2084L469 2440" stroke-width="10" stroke="url(#SvgjsLinearGradient1095)" stroke-linecap="round" class="TopLeft"></path><path d="M541 1519L118 1096" stroke-width="6" stroke="url(#SvgjsLinearGradient1094)" stroke-linecap="round" class="TopLeft"></path><path d="M747 1895L1426 2574" stroke-width="10" stroke="url(#SvgjsLinearGradient1094)" stroke-linecap="round" class="TopLeft"></path><path d="M908 1857L1322 2271" stroke-width="10" stroke="url(#SvgjsLinearGradient1094)" stroke-linecap="round" class="TopLeft"></path><path d="M323 1464L-244 897" stroke-width="10" stroke="url(#SvgjsLinearGradient1096)" stroke-linecap="round" class="BottomRight"></path></g><defs><mask id="SvgjsMask1092"><rect width="1080" height="2560" fill="#ffffff"></rect></mask><linearGradient x1="0%" y1="0%" x2="100%" y2="100%" id="SvgjsLinearGradient1093"><stop stop-color="rgba(229, 57, 53, 0)" offset="0"></stop><stop stop-color="rgba(229, 57, 53, 1)" offset="1"></stop></linearGradient><linearGradient x1="100%" y1="100%" x2="0%" y2="0%" id="SvgjsLinearGradient1094"><stop stop-color="rgba(211, 47, 47, 0)" offset="0"></stop><stop stop-color="rgba(211, 47, 47, 1)" offset="1"></stop></linearGradient><linearGradient x1="100%" y1="100%" x2="0%" y2="0%" id="SvgjsLinearGradient1095"><stop stop-color="rgba(229, 57, 53, 0)" offset="0"></stop><stop stop-color="rgba(229, 57, 53, 1)" offset="1"></stop></linearGradient><linearGradient x1="0%" y1="0%" x2="100%" y2="100%" id="SvgjsLinearGradient1096"><stop stop-color="rgba(211, 47, 47, 0)" offset="0"></stop><stop stop-color="rgba(211, 47, 47, 1)" offset="1"></stop></linearGradient></defs></svg>